HIERARCHY
ROOT pelvis
{
  OFFSET 0 100 0
  CHANNELS 6 Xposition Yposition Zposition Zrotation Xrotation Yrotation
  JOINT pelvis_right_femur
  {
    OFFSET -10.78128 -3.44521 -0.5502486
    CHANNELS 3 Zrotation Xrotation Yrotation
    JOINT right_femur_tibia
    {
      OFFSET -0.8047443 -44.0398 -0.1307829
      CHANNELS 3 Zrotation Xrotation Yrotation
      JOINT right_tibia_foot
      {
        OFFSET 3.006224 -47.83518 -5
        CHANNELS 3 Zrotation Xrotation Yrotation
        End Site
        {
          OFFSET 0 -5 15
        }
      }
    }
  }
  JOINT pelvis_left_femur
  {
    OFFSET 10.78128 -3.44521 -0.5502486
    CHANNELS 3 Zrotation Xrotation Yrotation
    JOINT left_femur_tibia
    {
      OFFSET 0.8047443 -44.0398 -0.1307829
      CHANNELS 3 Zrotation Xrotation Yrotation
      JOINT left_tibia_foot
      {
        OFFSET -4.370144 -48.10324 -4.275266
        CHANNELS 3 Zrotation Xrotation Yrotation
        End Site
        {
          OFFSET 0 -5 15
        }
      }
    }
  }
  JOINT pelvis_spine1
  {
    OFFSET 0 6.468898 -3.129235
    CHANNELS 3 Zrotation Xrotation Yrotation
    JOINT spine1
    {
      OFFSET 0 23.15396 4.99043
      CHANNELS 3 Zrotation Xrotation Yrotation
      JOINT spine2
      {
        OFFSET 0 20.79997 -5.064912
        CHANNELS 3 Zrotation Xrotation Yrotation
        JOINT neck
        {
          OFFSET 0 14.38658 9.616178
          CHANNELS 3 Zrotation Xrotation Yrotation
          End Site
          {
            OFFSET 0 20 0
          }
        }
      }
      JOINT right_manubrium
      {
        OFFSET -5.722621 16.35077 3.967754
        CHANNELS 3 Zrotation Xrotation Yrotation
        JOINT right_clavicle
        {
          OFFSET -13.16364 1.694482 -4.693211
          CHANNELS 3 Zrotation Xrotation Yrotation
          JOINT right_humerus
          {
            OFFSET -28.5034 -0.3100689 -2.792744
            CHANNELS 3 Zrotation Xrotation Yrotation
            JOINT right_radius
            {
              OFFSET -25.15693 0.02248979 -1.271978
              CHANNELS 3 Zrotation Xrotation Yrotation
              End Site
              {
                OFFSET -15 0 0
              }
            }
          }
        }
      }
      JOINT left_manubrium
      {
        OFFSET 5.722621 16.35077 3.967754
        CHANNELS 3 Zrotation Xrotation Yrotation
        JOINT left_clavicle
        {
          OFFSET 13.16364 1.694482 -4.693211
          CHANNELS 3 Zrotation Xrotation Yrotation
          JOINT left_humerus
          {
            OFFSET 29.39168 -1.063119 -2.237045
            CHANNELS 3 Zrotation Xrotation Yrotation
            JOINT left_radius
            {
              OFFSET 24.59957 -0.9528479 0.9047498
              CHANNELS 3 Zrotation Xrotation Yrotation
              End Site
              {
                OFFSET 15 -0 -0
              }
            }
          }
        }
      }
    }
  }
}
MOTION
Frames: 23
Frame Time: 0.0416666666667
0 103.5113 0 2.248462 -3.089449 0.2982709 1.213676 -11.1936 6.275301 -0 37.61827 -0 -5.596426 -16.49593 -5.177207 -7.094107 13.55099 -23.17977 -0 4.118631 -0 -0.7653273 -20.9159 22.2495 -4.593979 -3.525755 3.39113 1.895635 7.631541 -7.739999 0.6461323 24.32825 7.050964 3.375097 -21.31347 7.736413 6.163577 -18.5563 10.90801 87.07595 35.28753 -21.91677 -0 0 14.38702 -9.301117 8.151266 5.260371 3.815623 -18.83018 -3.767987 -98.2865 41.28233 25.94903 0 0 -20.82826 -12.05922 16.89211 27.72903
0.1192468 102.7382 1.492964 1.920132 -2.641298 0.4698069 1.650269 -12.54682 6.352402 -0 37.80719 -0 -5.573271 -15.62499 -5.000649 -6.935825 13.32606 -22.96228 -0 4.529473 -0 -0.8287791 -20.881 21.86204 -4.332239 -3.308774 3.363823 1.983218 7.717852 -7.838984 0.600508 23.99106 7.25341 3.481761 -21.75935 7.872307 6.302316 -18.60481 11.00951 86.95632 35.53635 -21.84109 -0 0 14.56912 -9.407846 8.451297 5.445593 3.878088 -18.89561 -3.660836 -98.15301 40.64454 26.0532 0 0 -20.72496 -11.43861 16.67673 27.21252
0.3254312 102.1606 3.581786 0.3183697 -0.7241631 0.6979914 3.765882 -19.47069 6.386073 -0 36.5172 -0 -5.53583 -11.3206 -4.358665 -6.008548 12.82512 -21.57887 -0 6.934678 -0 -2.05676 -21.24796 19.4119 -3.037911 -2.087948 3.074065 2.382221 7.879673 -8.267641 0.5101541 22.55141 8.089506 3.974045 -23.53094 8.46632 6.621121 -18.5065 11.30747 86.61971 36.08277 -21.66362 -0 0 15.01905 -10.10083 9.774965 6.264482 4.315221 -19.28193 -3.237917 -97.25659 38.13538 25.84874 0 0 -20.71654 -9.174261 15.55091 25.42395
0.5750712 101.5011 6.240559 -0.5883025 0.4540258 1.095907 4.911945 -24.33826 6.042737 -0 33.56684 -0 -5.44282 -8.177197 -4.04042 -5.397318 12.75455 -20.11335 -0 8.650355 -0 -3.041519 -21.71879 17.46896 -2.314202 -1.226306 2.842651 2.622497 7.931171 -8.565477 0.5063959 21.64943 8.553897 4.270003 -24.42704 8.792125 6.58474 -18.18007 11.39959 86.68343 36.22113 -21.77267 -0 0 14.7925 -11.02114 10.77476 6.937313 4.781002 -19.77887 -3.024634 -95.72063 36.22009 24.46746 0 0 -21.41658 -7.375279 14.67368 23.74053
0.8604925 100.6348 9.569462 -1.106012 1.325889 1.636729 5.323608 -28.50574 5.170043 -0 29.35462 -0 -5.120079 -5.018947 -3.901596 -4.966925 12.76528 -18.07755 -0 9.918434 -0 -3.912563 -22.21332 15.44895 -1.919938 -0.4940325 2.65727 2.760437 8.040854 -8.877566 0.4851515 20.88255 8.905765 4.471958 -24.84526 8.947798 6.366327 -17.67718 11.42257 87.08371 36.29947 -22.15935 -0 0 14.03961 -12.66592 11.99155 7.876948 5.313773 -20.54251 -2.983239 -93.23222 34.04912 21.9144 0 0 -22.9681 -5.427664 13.59162 21.69172
1.16082 99.43064 13.58661 -1.184344 1.754407 2.296252 4.930393 -31.53397 3.837264 -0 24.21547 -0 -4.591199 -2.412807 -4.057941 -4.740866 13.07944 -15.78672 -0 10.58726 -0 -4.52316 -22.67903 13.69648 -1.884225 0.01329635 2.511282 2.79028 8.156735 -9.157975 0.484776 20.37427 9.05597 4.510745 -24.6898 8.933233 5.939594 -17.00466 11.33614 87.80216 36.18169 -22.78033 -0 0 12.80507 -14.70888 13.17615 8.89345 5.876771 -21.44773 -3.088093 -90.18438 31.76592 18.43678 0 0 -25.09179 -3.485667 12.46437 19.39189
1.460313 97.80578 18.29064 -0.8608846 1.722991 3.055244 3.83571 -33.33546 2.179165 -0 18.56463 -0 -3.840629 -0.5357479 -4.56073 -4.707301 13.77739 -13.37416 -0 10.71291 -0 -4.824751 -23.02183 12.33435 -2.152935 0.2773457 2.389702 2.718816 8.274449 -9.393794 0.5209153 20.13197 8.987332 4.363169 -23.97106 8.781314 5.322489 -16.17745 11.14193 88.79003 35.80218 -23.56968 -0 0 11.17118 -16.98523 14.25701 9.90923 6.438468 -22.41278 -3.311128 -86.83601 29.30282 14.24431 0 0 -27.55709 -1.552899 11.31002 16.85581
1.753278 95.75069 23.65067 -0.2331443 1.256414 3.889697 2.349919 -33.85645 0.5272541 -0 13.03972 -0 -2.931817 0.4186912 -5.399399 -4.830887 14.91042 -11.08305 -0 10.53041 -0 -4.821219 -23.10159 11.48918 -2.613569 0.2898914 2.269736 2.56837 8.376271 -9.560274 0.6156172 20.15201 8.695748 4.032415 -22.77815 8.551608 4.568236 -15.24238 10.85511 89.93245 35.10494 -24.40798 -0 0 9.302592 -19.17973 15.12353 10.77208 6.945295 -23.30106 -3.599607 -83.60124 26.74052 9.754248 0 0 -29.97891 0.2984953 10.20316 14.21248
2.045235 93.35475 29.60964 0.5222644 0.4425852 4.758011 0.9421907 -33.2025 -0.6793474 -0 8.455744 -0 -1.997778 0.4007411 -6.477708 -5.029904 16.43097 -9.180992 -0 10.5134 -0 -4.626142 -22.73374 11.1872 -3.086068 0.08281668 2.127561 2.376562 8.449176 -9.632664 0.7844162 20.38667 8.215437 3.558084 -21.30121 8.321647 3.775073 -14.27971 10.51491 91.05809 34.08359 -25.13875 -0 0 7.440897 -20.92977 15.69705 11.32021 7.326963 -23.9521 -3.886323 -80.90839 24.30567 5.522151 0 0 -31.88958 1.95611 9.232352 11.69556
2.34549 90.81853 36.07869 1.158741 -0.5681312 5.582668 0.1113308 -31.6501 -1.045259 -0 5.687263 -0 -1.232281 -0.440826 -7.607549 -5.168965 18.14237 -7.933076 -0 11.37822 -0 -4.473991 -21.72775 11.32512 -3.344875 -0.2633336 1.954667 2.194702 8.488841 -9.58862 1.026725 20.74383 7.626616 3.018938 -19.83312 8.166099 3.085295 -13.40475 10.18546 91.95811 32.81269 -25.59674 -0 0 5.88559 -21.88119 15.93665 11.42092 7.503789 -24.20699 -4.095648 -79.12171 22.37611 2.204687 0 0 -32.80815 3.26431 8.504693 9.644002
2.65515 88.43414 42.93107 1.424866 -1.592496 6.247464 0.2084542 -29.56015 -0.3991141 -0 5.380722 -0 -0.8242611 -1.738474 -8.545441 -5.091744 19.65942 -7.512522 -0 13.98067 -0 -4.665556 -19.96278 11.68273 -3.187442 -0.6253395 1.779745 2.074576 8.509769 -9.413655 1.316246 21.10519 7.04683 2.525461 -18.70817 8.124146 2.659308 -12.74694 9.948753 92.43803 31.46042 -25.66029 -0 0 4.919049 -21.82131 15.85429 11.03901 7.406893 -23.96665 -4.164393 -78.45968 21.34976 0.4313318 0 0 -32.40142 4.052023 8.115141 8.43178
2.963345 86.52296 50.00476 1.181946 -2.466353 6.630311 1.295724 -27.20587 1.106845 -0 7.579518 -0 -0.8726574 -2.997351 -9.056163 -4.709818 20.42488 -7.886266 -0 19.06113 -0 -5.42434 -17.47435 12.01739 -2.536974 -0.8672867 1.682351 2.046501 8.552251 -9.105626 1.601517 21.36922 6.596887 2.198325 -18.18261 8.173302 2.624957 -12.40985 9.888007 92.37939 30.26684 -25.29783 -0 0 4.69649 -20.81361 15.52473 10.28433 7.008932 -23.25768 -4.069329 -78.97726 21.4241 0.6105734 0 0 -30.67025 4.191067 8.095543 8.325628
3.259834 85.34013 57.12299 0.5169389 -3.103675 6.659615 3.079377 -24.62262 3.015909 -0 11.4733 -0 -1.329449 -3.793884 -8.984953 -4.100796 19.82232 -8.735238 -0 26.87724 -0 -6.736315 -14.49696 12.19099 -1.524922 -0.8861551 1.782384 2.097712 8.678503 -8.676476 1.822099 21.49942 6.35019 2.12895 -18.30455 8.229152 3.017073 -12.42991 10.06252 91.78237 29.48064 -24.57504 -0 0 5.161115 -19.25361 15.09073 9.399384 6.353647 -22.26323 -3.849461 -80.5627 22.4184 2.715188 0 0 -28.04675 3.673337 8.369071 9.320937
3.549748 84.98164 64.12672 -0.2534908 -3.531834 6.346586 4.975483 -21.60565 4.710722 -0 15.53879 -0 -2.010927 -3.986618 -8.313267 -3.494244 17.3695 -9.524086 -0 36.86722 -0 -8.303055 -11.42455 12.23295 -0.4735875 -0.6506929 2.200337 2.167747 8.950655 -8.149626 1.932164 21.54172 6.298335 2.335504 -18.86786 8.178842 3.741049 -12.76881 10.48144 90.75771 29.27249 -23.60355 -0 0 6.070312 -17.77286 14.73995 8.680953 5.562684 -21.273 -3.602259 -82.88585 23.8053 6.184841 0 0 -25.27967 2.66337 8.761507 11.06783
3.847212 85.33788 70.89895 -0.7405405 -3.868991 5.766751 6.357549 -17.86812 5.665047 -0 18.13594 -0 -2.666871 -3.803989 -7.168967 -3.087944 12.89153 -9.746614 -0 47.52987 -0 -9.669397 -8.694532 12.29702 0.2520038 -0.2123478 3.000822 2.170291 9.395796 -7.553994 1.914527 21.58717 6.365354 2.745165 -19.50927 7.935234 4.590588 -13.35926 11.09141 89.45864 29.65888 -22.44906 -0 0 7.159591 -17.01397 14.63524 8.387804 4.803603 -20.5566 -3.442226 -85.38498 24.97724 10.09162 0 0 -23.11196 1.465531 9.078538 12.98481
4.156305 86.11573 77.36987 -0.7161626 -4.236822 5.019242 6.879154 -13.24907 5.692521 -0 18.26289 -0 -3.061678 -3.746327 -5.77207 -2.849942 6.582876 -9.165127 -0 56.63755 -0 -10.44483 -6.644198 12.56427 0.446816 0.3180619 4.144136 2.03179 9.977367 -6.918583 1.778369 21.69895 6.464526 3.222002 -19.89893 7.487876 5.317152 -14.17545 11.78965 87.98482 30.47042 -21.0535 -0 0 8.35016 -17.393 14.82857 8.687808 4.230003 -20.23132 -3.43784 -87.46746 25.54075 13.56785 0 0 -21.92827 0.3954598 9.184098 14.52609
4.474838 86.91734 83.51655 -0.2526351 -4.659543 4.19343 6.62653 -7.862167 5.012838 -0 16.01125 -0 -3.03119 -4.35322 -4.34183 -2.510692 -1.023569 -7.845517 -0 61.79048 -0 -10.47359 -5.409508 13.16128 0.1846191 0.8159723 5.474681 1.724301 10.59339 -6.271428 1.550448 21.85551 6.55215 3.622208 -19.89874 6.926036 5.713993 -15.26465 12.45515 86.3287 31.38062 -19.23705 -0 0 9.839063 -18.9641 15.22265 9.637038 3.929155 -20.20773 -3.567418 -88.8413 25.40798 16.23806 0 0 -21.59262 -0.3615352 9.018892 15.42893
4.82423 87.34747 89.37404 0.3323136 -5.028531 3.34219 5.984647 -2.128034 4.085223 -0 12.46984 -0 -2.505599 -5.941452 -3.025865 -1.747387 -9.122108 -6.030787 -0 61.24073 -0 -9.8655 -4.915389 14.11441 -0.2352199 1.184697 6.766763 1.275899 11.10647 -5.641276 1.272892 21.953 6.635929 3.840169 -19.59541 6.41433 5.674411 -16.69676 12.97617 84.43082 31.99146 -16.81872 -0 0 11.97472 -21.41951 15.61584 11.15179 3.903447 -20.24146 -3.725688 -89.64768 24.71128 18.30913 0 0 -21.56349 -0.802948 8.579812 15.77666
5.262677 87.12381 95.0499 0.687887 -5.172472 2.476064 5.352683 3.351727 3.360103 -0 9.172366 -0 -1.501177 -8.416632 -1.895963 -0.4268018 -16.74531 -4.034697 -0 54.77481 -0 -8.898979 -4.952927 15.33669 -0.4864853 1.368281 7.819547 0.7565882 11.39237 -5.055504 1.009415 21.8712 6.735134 3.829344 -19.20574 6.122656 5.208988 -18.45095 13.26397 82.33119 31.96313 -13.81637 -0 0 14.96757 -24.19773 15.81051 12.98115 4.081518 -20.0563 -3.777573 -90.26614 23.69708 20.25373 0 0 -21.20557 -1.051648 7.908211 15.8616
5.855057 86.15839 100.7173 0.6624616 -4.993067 1.597968 4.916963 8.044336 3.116572 -0 7.417429 -0 -0.09598873 -11.25168 -1.002804 1.216917 -22.96402 -2.233359 -0 44.18526 -0 -7.86998 -5.292294 16.65177 -0.43551 1.339479 8.550918 0.2479459 11.38541 -4.531929 0.8454681 21.56327 6.830415 3.604626 -18.92222 6.144382 4.429902 -20.32113 13.26398 80.27917 31.16244 -10.57405 -0 0 18.62084 -26.66976 15.72272 14.74201 4.343077 -19.47472 -3.627227 -90.99567 22.64546 22.36394 0 0 -20.12476 -1.250763 7.087582 15.96786
6.631374 84.57561 106.5784 0.3948462 -4.567623 0.7429515 4.593124 11.69448 3.421659 -0 7.841631 -0 1.584993 -13.67618 -0.4326584 2.603474 -27.13872 -1.048941 -0 32.78753 -0 -6.973401 -5.766986 17.85161 -0.2264897 1.095165 9.020572 -0.1893406 11.10306 -4.073444 0.8631148 21.10455 6.85376 3.230353 -18.79602 6.452863 3.517071 -21.93798 12.97622 78.6501 29.75286 -7.656507 -0 0 22.30029 -28.36166 15.41889 16.05173 4.552455 -18.49354 -3.265695 -91.86665 21.80298 24.51904 0 0 -18.3449 -1.489673 6.225339 16.22676
7.578848 82.65982 112.8119 0.1935303 -4.13382 -0.02360764 4.140074 14.32644 4.165299 -0 10.45554 -0 3.372951 -14.99387 -0.304717 3.11818 -29.07695 -0.7809648 -0 23.9727 -0 -6.272828 -6.292828 18.75786 -0.1616974 0.6725831 9.355033 -0.5340263 10.64292 -3.677146 1.094723 20.65531 6.735733 2.794014 -18.73143 6.924873 2.675828 -22.93071 12.47348 77.72586 28.12957 -5.56586 -0 0 25.21342 -29.12246 15.05755 16.69679 4.599041 -17.2723 -2.776927 -92.67313 21.33732 26.30637 0 0 -16.23639 -1.79526 5.417526 16.6222
8.664582 80.76259 119.5196 0.3077864 -3.961436 -0.6262282 3.356742 16.05714 5.13165 -0 14.99388 -0 5.074645 -14.84193 -0.7021607 2.518358 -28.99215 -1.387322 -0 19.64938 -0 -5.74825 -6.838336 19.25557 -0.4739911 0.1585844 9.633335 -0.8004377 10.15564 -3.354796 1.490255 20.36443 6.470319 2.377374 -18.58265 7.410472 2.088366 -23.12287 11.88968 77.56284 26.72308 -4.528319 -0 0 26.80796 -29.14301 14.79873 16.72242 4.430403 -16.05435 -2.306657 -93.14371 21.30911 27.3371 0 0 -14.27958 -2.162532 4.720453 17.0943
